<svg width="32" height="32" viewBox="0 0 48 48" fill="none" xmlns="http://www.w3.org/2000/svg">
<path d="M48 24C48 37.2235 37.2471 48 24 48C10.7765 48 0 37.2235 0 24C0 10.7529 10.7765 0 24 0C37.2471 0 48 10.7529 48 24ZM26.7765 19.2942L24.0235 21.9295L21.2941 19.2942C19.2 17.2942 17.2471 16.3059 14.9177 16.3059C10.5883 16.3059 7.67058 19.3882 7.67058 24C7.67058 28.5883 10.5883 31.6706 14.9177 31.6706C17.2235 31.6706 19.1765 30.7058 21.2941 28.6823L24.0235 26.0706L26.7765 28.6823C28.9412 30.7529 30.8706 31.6706 33.1294 31.6706C37.4823 31.6706 40.4 28.5883 40.4 24C40.4 19.3882 37.4823 16.3059 33.1294 16.3059C30.8471 16.3059 28.9177 17.2235 26.7765 19.2942ZM19.1529 21.4823L21.8824 24L19.1529 26.5177C17.553 28.0236 16.3294 28.6823 14.9177 28.6823C12.353 28.6823 10.6823 26.8471 10.6823 24C10.6823 21.1529 12.353 19.2942 14.9177 19.2942C16.3059 19.2942 17.5059 19.9294 19.1529 21.4823ZM37.3882 24C37.3882 26.8471 35.6941 28.6823 33.1294 28.6823C31.7177 28.6823 30.4941 28.0236 28.8941 26.5177L26.1882 24L28.8941 21.4823C30.5412 19.9294 31.7647 19.2942 33.1294 19.2942C35.6941 19.2942 37.3882 21.1529 37.3882 24Z" fill="black" fill-opacity="0.85"/>
</svg>
